<svg width="70" height="54" viewBox="0 0 70 54" fill="none" xmlns="http://www.w3.org/2000/svg">
<path d="M62.2492 0.886719H50.8028C50.2287 0.886719 49.763 1.35242 49.763 1.92653C49.763 2.50064 50.2287 2.96581 50.8028 2.96581H62.2492C65.2891 2.96581 67.7767 5.3696 67.914 8.37581L48.8438 24.2539C47.5365 17.8078 41.8263 12.9404 35 12.9404C28.1742 12.9404 22.4635 17.8078 21.1562 24.2533L2.08603 8.37474C2.22382 5.36906 4.71146 2.96581 7.75078 2.96581H46.6441C47.2182 2.96581 47.6833 2.50064 47.6833 1.92653C47.6833 1.35242 47.2182 0.886719 46.6441 0.886719H7.75078C3.47725 0.886719 0 4.36397 0 8.6375V45.6856C0 49.8545 3.3918 53.2457 7.56065 53.2457H16.7037C17.2778 53.2457 17.7435 52.7806 17.7435 52.2065C17.7435 51.6323 17.2778 51.1666 16.7037 51.1666H7.56065C4.53789 51.1666 2.07909 48.7078 2.07909 45.6856V11.0749L20.8784 26.7282C20.8763 26.8409 20.8742 26.9535 20.8742 27.0662C20.8742 34.8549 27.2113 41.192 35 41.192C42.7887 41.192 49.1258 34.8549 49.1258 27.0662C49.1258 26.9535 49.1237 26.8409 49.1216 26.7282L67.9209 11.076V45.6856C67.9209 48.7078 65.4621 51.1666 62.4393 51.1666H20.8624C20.2883 51.1666 19.8226 51.6323 19.8226 52.2065C19.8226 52.7806 20.2883 53.2457 20.8624 53.2457H62.4393C66.6082 53.2457 70 49.8545 70 45.6856V8.6375C70 4.36397 66.5228 0.886719 62.2492 0.886719ZM35 39.1124C28.3574 39.1124 22.9538 33.7088 22.9538 27.0662C22.9538 20.4241 28.3574 15.02 35 15.02C41.6426 15.02 47.0462 20.4241 47.0462 27.0662C47.0462 33.7088 41.6426 39.1124 35 39.1124Z" fill="#01BFFF"/>
</svg>
